<?xml version="1.0" encoding="utf-8"?>
<!-- Generator: Adobe Illustrator 24.0.0, SVG Export Plug-In . SVG Version: 6.00 Build 0)  -->
<svg version="1.1" id="Camada_1" xmlns="http://www.w3.org/2000/svg" xmlns:xlink="http://www.w3.org/1999/xlink" x="0px" y="0px"
	 viewBox="0 0 1000 315" style="enable-background:new 0 0 1000 315;" xml:space="preserve">
<style type="text/css">
	.st0{fill:#EF6632;}
	.st1{opacity:0.6;fill-rule:evenodd;clip-rule:evenodd;fill:#EF6632;}
	.st2{fill-rule:evenodd;clip-rule:evenodd;fill:#EF6632;}
	.st3{fill:#3155A5;}
</style>
<g>
	<path class="st0" d="M261.1,158.2l-43.8,25.3c-1.6,0.9-3.6-0.2-3.6-2.1v-50.6c0-1.9,2-3,3.6-2.1l43.8,25.3
		C262.7,154.9,262.7,157.3,261.1,158.2z"/>
	<path class="st0" d="M140.5,204.9c-4.5-0.5-7.8-4.4-7.8-8.9v-72.8c-2.9-0.1-7-0.1-11.2,0.2c-6.8,0.4-12.1,6.2-12.1,13l0,81.7
		c0,4.7,3.9,8.4,8.5,8.1c34-2.2,75.3,7.1,109.1,40.3c0.7,0.7,1.9-0.1,1.5-1C212.8,233.6,178.6,208.8,140.5,204.9z"/>
	<path class="st0" d="M107.5,242.4c-4.7,0.7-8.8-3-8.8-7.7v-71c-4.9,1.1-9.6,2.4-14.3,4c-5.4,1.8-9,6.8-9,12.4v83.3
		c0,5.3,5.2,9,10.1,7.2c27.8-9.8,80-21.4,139.6,0.9c1,0.4,1.7-0.9,0.9-1.5C201.3,251.5,159,234.4,107.5,242.4z"/>
	<path class="st0" d="M376.9,167.6c-4.7-1.6-9.4-2.9-14.3-4v71c0,4.7-4.2,8.5-8.8,7.7c-51.5-8.1-93.8,9.1-118.5,27.6
		c-0.9,0.6-0.1,1.9,0.9,1.5c59.6-22.3,111.8-10.8,139.6-0.9c5,1.8,10.1-2,10.1-7.2l0-83.3C385.9,174.4,382.3,169.5,376.9,167.6z"/>
	<path class="st0" d="M343.4,226.2c4.6,0.3,8.5-3.4,8.5-8.1l0-81.7c0-6.8-5.3-12.5-12.1-13c-4.3-0.3-8.4-0.3-11.2-0.2V196
		c0,4.5-3.3,8.4-7.8,8.9c-38.1,3.9-72.3,28.7-88,60.6c-0.5,0.9,0.8,1.7,1.5,1C268.2,233.3,309.4,224.1,343.4,226.2z"/>
	<path class="st1" d="M275.3,123h8.4c1.5,0,2.7-1.2,2.7-2.7v-8.4c0-1.5-1.2-2.7-2.7-2.7h-8.4c-1.5,0-2.7,1.2-2.7,2.7v8.4
		C272.6,121.8,273.8,123,275.3,123z"/>
	<path class="st2" d="M303,95.4h8.4c1.5,0,2.7-1.2,2.7-2.7v-8.4c0-1.5-1.2-2.7-2.7-2.7H303c-1.5,0-2.7,1.2-2.7,2.7v8.4
		C300.3,94.2,301.5,95.4,303,95.4z"/>
	<path class="st2" d="M289.1,109.3h8.4c1.5,0,2.7-1.2,2.7-2.7v-8.4c0-1.5-1.2-2.7-2.7-2.7h-8.4c-1.5,0-2.7,1.2-2.7,2.7v8.4
		C286.4,108,287.6,109.3,289.1,109.3z"/>
	<path class="st1" d="M330.6,95.4h8.4c1.5,0,2.7-1.2,2.7-2.7v-8.4c0-1.5-1.2-2.7-2.7-2.7h-8.4c-1.5,0-2.7,1.2-2.7,2.7v8.4
		C327.9,94.2,329.1,95.4,330.6,95.4z"/>
	<path class="st2" d="M316.8,67.7h8.4c1.5,0,2.7-1.2,2.7-2.7v-8.4c0-1.5-1.2-2.7-2.7-2.7h-8.4c-1.5,0-2.7,1.2-2.7,2.7V65
		C314,66.5,315.3,67.7,316.8,67.7z"/>
	<path class="st2" d="M325.2,109.3h-8.4c-1.5,0-2.7-1.2-2.7-2.7v-8.4c0-1.5,1.2-2.7,2.7-2.7h8.4c1.5,0,2.7,1.2,2.7,2.7v8.4
		C327.9,108,326.7,109.3,325.2,109.3z"/>
	<g>
		<path class="st0" d="M275.9,81.4H152.4c-5,0-9,4-9,9V186c8.8,0,16-7.1,16-16v-69.3c0-1.8,1.4-3.2,3.2-3.2h113.4
			c2,0,3.7-1.6,3.7-3.7v-8.9C279.6,83.1,277.9,81.4,275.9,81.4z"/>
		<path class="st0" d="M302,121.9v48.2c0,8.8,7.1,16,16,16l0,0v-64.1c0-1.4-1.1-2.5-2.5-2.5h-10.9C303.1,119.4,302,120.5,302,121.9z
			"/>
	</g>
</g>
<g>
	<g>
		<rect x="529.2" y="124.8" class="st3" width="14.1" height="72"/>
		<path class="st3" d="M743.4,196.8v-36.1c0-12.1-9.8-21.9-21.9-21.9c-12.1,0-21.9,9.8-21.9,21.9v36.1h-14.1v-36.1
			c0-19.9,16.1-36.1,36.1-36.1c19.9,0,36.1,16.1,36.1,36.1v36.1H743.4z"/>
		<path class="st3" d="M570.2,106.1v61.7c0,8.2,6.7,14.9,14.9,14.9h6.8v14.1h-6.8c-16,0-29-13-29-29v-61.7H570.2z"/>
		<path class="st3" d="M924,160.7v36.1h-14.1v-7.5v-28.6c0-12.1-9.8-21.9-21.9-21.9c-12.1,0-21.9,9.8-21.9,21.9
			c0,12.1,9.8,21.9,21.9,21.9l0,14.1c-19.9,0-36.1-16.1-36.1-36.1c0-19.9,16.1-36.1,36.1-36.1C907.9,124.6,924,140.8,924,160.7z"/>
		<path class="st3" d="M841.2,183.3c0,19.9-16.1,36.1-36.1,36.1h-22v-14.1h22c9.8,0,21.9-7.6,21.9-22v-22.5c0-12.3-9.9-22-21.9-22
			c-12.1,0-21.9,9.8-21.9,21.9c0,12.1,9.8,21.9,21.9,21.9v14.1c-19.9,0-36.1-16.1-36.1-36.1c0-19.9,16.1-36.1,36.1-36.1
			c19.9,0,36.1,16.1,36.1,36.1C841.2,162.1,841.2,183.3,841.2,183.3z"/>
		<path class="st3" d="M658.1,160.7c0-12.1-9.8-21.9-21.9-21.9c-12.1,0-21.9,9.8-21.9,21.9c0,12.1,9.8,21.9,21.9,21.9
			S658.1,172.8,658.1,160.7z M672.2,160.7c0,19.9-16.1,36.1-36.1,36.1c-19.9,0-36.1-16.1-36.1-36.1c0-19.9,16.1-36.1,36.1-36.1
			C656,124.7,672.2,140.8,672.2,160.7z"/>
		<polygon class="st3" points="515.9,124.3 489,159.3 519.6,196.8 502,196.8 479.9,170.6 457.8,196.8 439.6,196.8 470.9,159.3 
			444,124.3 462.1,124.3 479.9,148 497.8,124.3 		"/>
	</g>
	<g>
		<path class="st3" d="M440.6,217.8v-11.9h9.1v1.4h-7.5v3.7h6.7v1.4h-6.7v3.9h7.6v1.4H440.6z"/>
		<path class="st3" d="M460.8,218c-0.6,0-1.3-0.1-1.9-0.2c-0.6-0.1-1.1-0.3-1.6-0.6c-0.5-0.3-0.8-0.6-1.1-1.1
			c-0.3-0.5-0.4-1-0.4-1.7c0-0.1,0-0.1,0-0.2c0-0.1,0-0.1,0-0.2h1.7c0,0,0,0.1,0,0.2s0,0.1,0,0.2c0,0.5,0.1,0.9,0.4,1.2
			c0.3,0.3,0.7,0.6,1.2,0.7c0.5,0.2,1,0.2,1.7,0.2c0.3,0,0.6,0,0.9-0.1c0.3,0,0.6-0.1,0.9-0.2c0.3-0.1,0.5-0.2,0.8-0.3
			c0.2-0.1,0.4-0.3,0.5-0.5c0.1-0.2,0.2-0.5,0.2-0.8c0-0.4-0.1-0.7-0.3-1c-0.2-0.3-0.5-0.5-0.9-0.6c-0.4-0.2-0.8-0.3-1.3-0.5
			c-0.5-0.1-1-0.3-1.4-0.4s-1-0.3-1.4-0.4s-0.9-0.4-1.3-0.6c-0.4-0.2-0.7-0.6-0.9-0.9c-0.2-0.4-0.3-0.8-0.3-1.4
			c0-0.5,0.1-0.9,0.3-1.3c0.2-0.4,0.5-0.7,0.9-1c0.4-0.3,0.9-0.5,1.5-0.6s1.3-0.2,2-0.2c0.6,0,1.2,0.1,1.7,0.2
			c0.5,0.1,1,0.3,1.4,0.6s0.7,0.6,1,1c0.2,0.4,0.3,0.9,0.3,1.5v0.2h-1.6V209c0-0.4-0.1-0.7-0.4-1c-0.2-0.3-0.6-0.5-1-0.6
			c-0.4-0.1-0.9-0.2-1.4-0.2c-0.7,0-1.3,0.1-1.7,0.2c-0.5,0.1-0.8,0.3-1,0.6c-0.2,0.2-0.3,0.5-0.3,0.8c0,0.4,0.1,0.7,0.3,0.9
			c0.2,0.2,0.5,0.4,0.9,0.6c0.4,0.2,0.8,0.3,1.3,0.4s1,0.3,1.4,0.4c0.5,0.1,1,0.3,1.4,0.5c0.5,0.2,0.9,0.4,1.3,0.6
			c0.4,0.2,0.7,0.6,0.9,0.9c0.2,0.4,0.3,0.8,0.3,1.4c0,0.8-0.2,1.5-0.6,2.1c-0.4,0.5-1,0.9-1.7,1.2C462.6,217.9,461.7,218,460.8,218
			z"/>
		<path class="st3" d="M477.2,218c-1.2,0-2.2-0.2-3.1-0.7c-0.8-0.4-1.5-1.1-1.9-2c-0.4-0.9-0.7-2.1-0.7-3.5c0-2.1,0.5-3.6,1.5-4.6
			c1-1,2.4-1.5,4.2-1.5c1,0,1.9,0.2,2.7,0.5c0.8,0.3,1.4,0.8,1.8,1.5c0.4,0.7,0.7,1.5,0.7,2.5h-1.7c0-0.7-0.1-1.3-0.4-1.7
			c-0.3-0.5-0.7-0.8-1.2-1c-0.5-0.2-1.2-0.3-1.9-0.3c-0.8,0-1.5,0.2-2.1,0.5c-0.6,0.3-1.1,0.8-1.4,1.5c-0.3,0.7-0.5,1.5-0.5,2.6v0.4
			c0,1.1,0.2,1.9,0.5,2.6c0.3,0.7,0.8,1.2,1.4,1.5c0.6,0.3,1.3,0.5,2.2,0.5c0.7,0,1.4-0.1,1.9-0.3c0.5-0.2,1-0.6,1.2-1
			c0.3-0.5,0.4-1,0.4-1.7h1.6c0,1-0.2,1.9-0.7,2.5c-0.5,0.7-1.1,1.1-1.9,1.5C479.1,217.9,478.2,218,477.2,218z"/>
		<path class="st3" d="M494.1,218c-1.2,0-2.3-0.2-3.2-0.7c-0.9-0.5-1.6-1.1-2-2s-0.7-2.1-0.7-3.4c0-1.4,0.2-2.5,0.7-3.4
			c0.5-0.9,1.2-1.6,2-2c0.9-0.5,1.9-0.7,3.2-0.7c1.2,0,2.3,0.2,3.2,0.7s1.6,1.1,2,2c0.5,0.9,0.7,2.1,0.7,3.4c0,1.4-0.2,2.5-0.7,3.4
			c-0.5,0.9-1.2,1.6-2,2S495.4,218,494.1,218z M494.1,216.6c0.6,0,1.2-0.1,1.8-0.3c0.5-0.2,1-0.4,1.3-0.8c0.4-0.4,0.6-0.8,0.8-1.4
			c0.2-0.6,0.3-1.2,0.3-2v-0.4c0-0.8-0.1-1.5-0.3-2.1c-0.2-0.6-0.5-1-0.8-1.4c-0.4-0.4-0.8-0.6-1.3-0.8c-0.5-0.2-1.1-0.3-1.8-0.3
			c-0.7,0-1.2,0.1-1.8,0.3c-0.5,0.2-1,0.4-1.3,0.8c-0.4,0.4-0.6,0.8-0.8,1.4c-0.2,0.6-0.3,1.3-0.3,2.1v0.4c0,0.8,0.1,1.5,0.3,2
			c0.2,0.6,0.5,1,0.8,1.4c0.4,0.4,0.8,0.6,1.3,0.8C492.9,216.5,493.5,216.6,494.1,216.6z"/>
		<path class="st3" d="M506.5,217.8v-11.9h1.6v10.4h5.9v1.4H506.5z"/>
		<path class="st3" d="M518.5,217.8l4.7-11.9h2.2l4.7,11.9h-1.8l-1.2-2.9h-5.8l-1.1,2.9H518.5z M521.9,213.5h4.7l-1.4-3.7
			c0-0.1-0.1-0.2-0.2-0.4s-0.1-0.4-0.2-0.6c-0.1-0.2-0.2-0.5-0.2-0.7c-0.1-0.2-0.2-0.5-0.2-0.6h-0.1c-0.1,0.2-0.2,0.5-0.3,0.8
			c-0.1,0.3-0.2,0.6-0.3,0.9c-0.1,0.3-0.2,0.5-0.3,0.7L521.9,213.5z"/>
		<path class="st3" d="M546.6,217.8l-4.4-11.9h1.8l3,8.4c0.1,0.2,0.1,0.3,0.2,0.6c0.1,0.2,0.1,0.4,0.2,0.6c0.1,0.2,0.1,0.4,0.2,0.5
			h0.1c0-0.1,0.1-0.3,0.2-0.5s0.1-0.4,0.2-0.6c0.1-0.2,0.1-0.4,0.2-0.6l3-8.4h1.7l-4.5,11.9H546.6z"/>
		<path class="st3" d="M558.8,217.8v-11.9h1.6v11.9H558.8z"/>
		<path class="st3" d="M567.4,217.8v-11.9h6.3c0.8,0,1.5,0.1,2,0.4c0.5,0.3,0.9,0.7,1.2,1.2c0.3,0.5,0.4,1.1,0.4,1.8
			c0,0.8-0.2,1.5-0.6,2.1c-0.4,0.6-0.9,1-1.5,1.3l2.5,5h-1.8l-2.3-4.7h-4.5v4.7H567.4z M569.1,211.7h4.5c0.7,0,1.2-0.2,1.6-0.6
			c0.4-0.4,0.6-1,0.6-1.7c0-0.4-0.1-0.8-0.2-1.1c-0.2-0.3-0.4-0.5-0.7-0.7c-0.3-0.2-0.7-0.3-1.2-0.3h-4.5V211.7z"/>
		<path class="st3" d="M586.6,217.8v-10.4h-4.1v-1.4h9.8v1.4h-4.1v10.4H586.6z"/>
		<path class="st3" d="M603.1,218c-1,0-1.9-0.2-2.6-0.5s-1.3-0.8-1.7-1.5c-0.4-0.7-0.6-1.6-0.6-2.7v-7.4h1.6v7.6
			c0,1,0.3,1.8,0.8,2.3c0.6,0.5,1.3,0.8,2.4,0.8c1,0,1.8-0.3,2.4-0.8c0.6-0.5,0.9-1.3,0.9-2.3v-7.6h1.6v7.4c0,1.1-0.2,2-0.6,2.7
			c-0.4,0.7-1,1.2-1.7,1.5C604.9,217.9,604.1,218,603.1,218z"/>
		<path class="st3" d="M613.3,217.8l4.7-11.9h2.2l4.7,11.9h-1.8l-1.2-2.9h-5.8l-1.1,2.9H613.3z M616.7,213.5h4.7l-1.4-3.7
			c0-0.1-0.1-0.2-0.2-0.4s-0.1-0.4-0.2-0.6c-0.1-0.2-0.2-0.5-0.2-0.7c-0.1-0.2-0.2-0.5-0.2-0.6H619c-0.1,0.2-0.2,0.5-0.3,0.8
			c-0.1,0.3-0.2,0.6-0.3,0.9c-0.1,0.3-0.2,0.5-0.3,0.7L616.7,213.5z"/>
		<path class="st3" d="M630.6,217.8v-11.9h1.6v10.4h5.9v1.4H630.6z"/>
		<path class="st3" d="M650.3,217.8l4.7-11.9h2.2l4.7,11.9h-1.8l-1.2-2.9h-5.8l-1.1,2.9H650.3z M653.6,213.5h4.7l-1.4-3.7
			c0-0.1-0.1-0.2-0.2-0.4s-0.1-0.4-0.2-0.6c-0.1-0.2-0.2-0.5-0.2-0.7c-0.1-0.2-0.2-0.5-0.2-0.6h-0.1c-0.1,0.2-0.2,0.5-0.3,0.8
			c-0.1,0.3-0.2,0.6-0.3,0.9c-0.1,0.3-0.2,0.5-0.3,0.7L653.6,213.5z"/>
		<path class="st3" d="M667.5,217.8v-11.9h1.6l5.8,7.8c0.1,0.1,0.1,0.2,0.2,0.3c0.1,0.1,0.2,0.3,0.3,0.4c0.1,0.1,0.2,0.3,0.2,0.4
			h0.1c0-0.2,0-0.4,0-0.5s0-0.4,0-0.5v-7.8h1.6v11.9h-1.5l-5.8-8c-0.1-0.1-0.2-0.3-0.4-0.5s-0.3-0.4-0.4-0.6h-0.1c0,0.2,0,0.4,0,0.5
			c0,0.2,0,0.4,0,0.5v8H667.5z"/>
		<path class="st3" d="M689.7,218c-1.9,0-3.4-0.5-4.4-1.5c-1-1-1.5-2.6-1.5-4.6c0-1.4,0.2-2.5,0.7-3.4c0.5-0.9,1.1-1.6,2-2.1
			c0.9-0.5,2-0.7,3.3-0.7c0.8,0,1.5,0.1,2.2,0.3c0.7,0.2,1.2,0.4,1.7,0.8s0.8,0.8,1.1,1.3c0.3,0.5,0.4,1.2,0.4,1.9h-1.7
			c0-0.5-0.1-0.9-0.3-1.3c-0.2-0.4-0.4-0.7-0.8-0.9c-0.3-0.2-0.7-0.4-1.2-0.5s-0.9-0.1-1.4-0.1c-0.7,0-1.3,0.1-1.9,0.3
			c-0.5,0.2-1,0.4-1.4,0.8c-0.4,0.4-0.7,0.8-0.8,1.4c-0.2,0.6-0.3,1.3-0.3,2.1v0.4c0,1.1,0.2,1.9,0.5,2.6c0.3,0.7,0.8,1.2,1.4,1.5
			c0.6,0.3,1.4,0.5,2.3,0.5c0.9,0,1.6-0.1,2.2-0.4c0.6-0.2,1-0.6,1.3-1.1c0.3-0.5,0.4-1.1,0.4-1.9V213h-4.2v-1.4h5.9v6.3H694
			l-0.2-1.5c-0.3,0.4-0.7,0.7-1.1,1c-0.4,0.3-0.9,0.4-1.4,0.6C690.8,218,690.3,218,689.7,218z"/>
		<path class="st3" d="M707.5,218c-1.2,0-2.3-0.2-3.2-0.7s-1.6-1.1-2-2s-0.7-2.1-0.7-3.4c0-1.4,0.2-2.5,0.7-3.4c0.5-0.9,1.2-1.6,2-2
			s1.9-0.7,3.2-0.7c1.2,0,2.3,0.2,3.2,0.7s1.6,1.1,2,2c0.5,0.9,0.7,2.1,0.7,3.4c0,1.4-0.2,2.5-0.7,3.4c-0.5,0.9-1.2,1.6-2,2
			S708.8,218,707.5,218z M707.5,216.6c0.6,0,1.2-0.1,1.8-0.3c0.5-0.2,1-0.4,1.3-0.8c0.4-0.4,0.6-0.8,0.8-1.4c0.2-0.6,0.3-1.2,0.3-2
			v-0.4c0-0.8-0.1-1.5-0.3-2.1c-0.2-0.6-0.5-1-0.8-1.4c-0.4-0.4-0.8-0.6-1.3-0.8c-0.5-0.2-1.1-0.3-1.8-0.3c-0.7,0-1.2,0.1-1.8,0.3
			c-0.5,0.2-1,0.4-1.3,0.8c-0.4,0.4-0.6,0.8-0.8,1.4c-0.2,0.6-0.3,1.3-0.3,2.1v0.4c0,0.8,0.1,1.5,0.3,2c0.2,0.6,0.5,1,0.8,1.4
			c0.4,0.4,0.8,0.6,1.3,0.8C706.3,216.5,706.9,216.6,707.5,216.6z"/>
		<path class="st3" d="M719.9,217.8v-11.9h1.6v10.4h5.9v1.4H719.9z"/>
		<path class="st3" d="M731.9,217.8l4.7-11.9h2.2l4.7,11.9h-1.8l-1.2-2.9h-5.8l-1.1,2.9H731.9z M735.3,213.5h4.7l-1.4-3.7
			c0-0.1-0.1-0.2-0.2-0.4s-0.1-0.4-0.2-0.6c-0.1-0.2-0.2-0.5-0.2-0.7c-0.1-0.2-0.2-0.5-0.2-0.6h-0.1c-0.1,0.2-0.2,0.5-0.3,0.8
			c-0.1,0.3-0.2,0.6-0.3,0.9c-0.1,0.3-0.2,0.5-0.3,0.7L735.3,213.5z"/>
		<path class="st3" d="M749.1,217.8v-11.9h1.6l5.8,7.8c0.1,0.1,0.1,0.2,0.2,0.3c0.1,0.1,0.2,0.3,0.3,0.4c0.1,0.1,0.2,0.3,0.2,0.4
			h0.1c0-0.2,0-0.4,0-0.5s0-0.4,0-0.5v-7.8h1.6v11.9h-1.5l-5.8-8c-0.1-0.1-0.2-0.3-0.4-0.5s-0.3-0.4-0.4-0.6h-0.1c0,0.2,0,0.4,0,0.5
			c0,0.2,0,0.4,0,0.5v8H749.1z"/>
		<path class="st3" d="M764.6,217.8l4.7-11.9h2.2l4.7,11.9h-1.8l-1.2-2.9h-5.8l-1.1,2.9H764.6z M768,213.5h4.7l-1.4-3.7
			c0-0.1-0.1-0.2-0.2-0.4s-0.1-0.4-0.2-0.6c-0.1-0.2-0.2-0.5-0.2-0.7c-0.1-0.2-0.2-0.5-0.2-0.6h-0.1c-0.1,0.2-0.2,0.5-0.3,0.8
			c-0.1,0.3-0.2,0.6-0.3,0.9c-0.1,0.3-0.2,0.5-0.3,0.7L768,213.5z"/>
	</g>
</g>
</svg>
