<svg xmlns="http://www.w3.org/2000/svg" width="57.28" height="57.281" viewBox="0 0 57.28 57.281"><path d="M416.153,577.18h38.974a9.171,9.171,0,0,0,9.153-9.153V542.855a2.107,2.107,0,0,0-2.145-2.145h0a2.107,2.107,0,0,0-2.145,2.145v25.172a4.868,4.868,0,0,1-4.863,4.863H416.153a4.868,4.868,0,0,1-4.863-4.863V529.053a4.868,4.868,0,0,1,4.863-4.863H435.6V519.9H416.153A9.171,9.171,0,0,0,407,529.053v38.974A9.125,9.125,0,0,0,416.153,577.18Z" transform="translate(-407 -519.9)" fill="#003c98"/><path d="M453.979,537.878h-35.04A8.942,8.942,0,0,1,410,528.939h0A8.942,8.942,0,0,1,418.939,520h35.04a8.942,8.942,0,0,1,8.939,8.939h0A8.942,8.942,0,0,1,453.979,537.878Z" transform="translate(-407.855 -519.928)" fill="#003c98"/><path d="M415.939,537.878h0A8.942,8.942,0,0,1,407,528.939h0A8.942,8.942,0,0,1,415.939,520h0a8.942,8.942,0,0,1,8.939,8.939h0A8.942,8.942,0,0,1,415.939,537.878Z" transform="translate(-407 -519.928)" fill="#6cbeea"/><path d="M456.186,584.291h-35.04A2.107,2.107,0,0,1,419,582.145h0A2.107,2.107,0,0,1,421.145,580h35.04a2.107,2.107,0,0,1,2.145,2.145h0A2.107,2.107,0,0,1,456.186,584.291Z" transform="translate(-410.419 -537.022)" fill="#003c98"/></svg>