<svg xmlns="http://www.w3.org/2000/svg" width="57.28" height="61.494" viewBox="0 0 57.28 61.494"><path d="M762.153,577.18h38.974a9.171,9.171,0,0,0,9.154-9.153V542.855a2.107,2.107,0,0,0-2.145-2.145h0a2.107,2.107,0,0,0-2.145,2.145v25.172a4.868,4.868,0,0,1-4.863,4.863H762.153a4.868,4.868,0,0,1-4.863-4.863V529.053a4.868,4.868,0,0,1,4.863-4.863h17.306a2.107,2.107,0,0,0,2.145-2.145h0a2.107,2.107,0,0,0-2.145-2.145H762.153A9.171,9.171,0,0,0,753,529.053v38.974A9.125,9.125,0,0,0,762.153,577.18Z" transform="translate(-753 -515.687)" fill="#059448"/><path d="M764.939,575h35.041a8.942,8.942,0,0,1,8.939,8.939h0a8.942,8.942,0,0,1-8.939,8.939H764.939A8.942,8.942,0,0,1,756,583.939h0A8.942,8.942,0,0,1,764.939,575Z" transform="translate(-753.855 -531.384)" fill="#059448"/><path d="M812.939,575h0a8.942,8.942,0,0,1,8.939,8.939h0a8.942,8.942,0,0,1-8.939,8.939h0A8.942,8.942,0,0,1,804,583.939h0A8.942,8.942,0,0,1,812.939,575Z" transform="translate(-767.529 -531.384)" fill="#2eb056"/><path d="M763.3,533.763V537.7a1.13,1.13,0,0,0,1.144,1.144h0a1.13,1.13,0,0,0,1.144-1.144v-3.933a2.564,2.564,0,0,1,2.574-2.574h3.576a1.129,1.129,0,0,0,1.144-1.144h0a1.13,1.13,0,0,0-1.144-1.144h-3.576A4.823,4.823,0,0,0,763.3,533.763Z" transform="translate(-755.934 -518.251)" fill="#059448"/><g transform="translate(26.908)"><path d="M802.693,518.078l-9.94,16.805a17.835,17.835,0,0,0-2.074,9.368l.358,3.719a4.182,4.182,0,0,0,.143.93,4.76,4.76,0,0,0,2.431,3.147,4.694,4.694,0,0,0,4.148,0l3.433-1.5a17.1,17.1,0,0,0,7.151-6.365l9.94-16.805h0a9.129,9.129,0,0,0-3.433-12.085,9.017,9.017,0,0,0-12.157,2.789Zm-3.147,28.461-3.432,1.5c-.286.143-.5.143-.572.072-.072,0-.143-.215-.214-.5l-.358-3.719a12.9,12.9,0,0,1,1.5-6.722l7.723-13.086,8.224,4.863L804.7,542.035A14.876,14.876,0,0,1,799.547,546.54Zm9.511-28.032a5.027,5.027,0,0,1,3.647.5,4.736,4.736,0,0,1,1.859,6.15l-8.152-4.791A4.653,4.653,0,0,1,809.058,518.508Z" transform="translate(-790.628 -514.008)" fill="#059448"/></g></svg>