<svg xmlns="http://www.w3.org/2000/svg" width="56.351" height="57.28" viewBox="0 0 56.351 57.28"><path d="M656.939,575h35.04a8.942,8.942,0,0,1,8.939,8.939h0a8.942,8.942,0,0,1-8.939,8.939h-35.04A8.942,8.942,0,0,1,648,583.939h0A8.942,8.942,0,0,1,656.939,575Z" transform="translate(-646.713 -535.669)" fill="#d82632"/><path d="M656.939,575h0a8.942,8.942,0,0,1,8.939,8.939h0a8.942,8.942,0,0,1-8.939,8.939h0A8.942,8.942,0,0,1,648,583.939h0A8.942,8.942,0,0,1,656.939,575Z" transform="translate(-646.713 -535.669)" fill="#ff648e"/><path d="M673.446,533.526h0a2.428,2.428,0,0,0-3.647,2.646,2.3,2.3,0,0,0,1.073,1.5,2.274,2.274,0,0,1,0,3.862L654.5,551.761a2.2,2.2,0,0,1-2.288.071,2.282,2.282,0,0,1-1.144-2V529.45a2.282,2.282,0,0,1,1.144-2,2.2,2.2,0,0,1,2.288.072l9.511,5.935a2.428,2.428,0,0,0,1.859.286,2.3,2.3,0,0,0,1.5-1.073,2.439,2.439,0,0,0-.787-3.361l-9.511-5.935a7.241,7.241,0,0,0-7.223-.214,7.013,7.013,0,0,0-3.647,6.221v20.381a7.013,7.013,0,0,0,3.647,6.221,7.488,7.488,0,0,0,3.433.93,7.249,7.249,0,0,0,3.79-1.073l16.376-10.226a7.112,7.112,0,0,0,3.361-6.007A7.233,7.233,0,0,0,673.446,533.526Z" transform="translate(-646.2 -520.654)" fill="#d82632"/><g transform="translate(18.45)"><path d="M700.747,520h-26.6A2.107,2.107,0,0,0,672,522.145h0a2.107,2.107,0,0,0,2.145,2.145h26.6a4.868,4.868,0,0,1,4.863,4.863v38.974a4.868,4.868,0,0,1-4.863,4.863H681.3v4.291h19.451a9.171,9.171,0,0,0,9.153-9.153V529.153A9.125,9.125,0,0,0,700.747,520Z" transform="translate(-672 -520)" fill="#d82632"/></g><path d="M707.077,529.2h-3.933A1.13,1.13,0,0,0,702,530.344h0a1.13,1.13,0,0,0,1.144,1.144h3.933a2.564,2.564,0,0,1,2.574,2.574v3.576a1.13,1.13,0,0,0,1.144,1.144h0a1.13,1.13,0,0,0,1.144-1.144v-3.576A4.868,4.868,0,0,0,707.077,529.2Z" transform="translate(-662.097 -522.621)" fill="#d82632"/></svg>