<svg xmlns="http://www.w3.org/2000/svg" width="57.28" height="57.281" viewBox="0 0 57.28 57.281"><path d="M579.18,568.027V529.053a9.171,9.171,0,0,0-9.153-9.153H544.855a2.107,2.107,0,0,0-2.145,2.145h0a2.107,2.107,0,0,0,2.145,2.145h25.172a4.868,4.868,0,0,1,4.863,4.863v38.974a4.868,4.868,0,0,1-4.863,4.863H531.053a4.868,4.868,0,0,1-4.863-4.863V548.576H521.9v19.451a9.171,9.171,0,0,0,9.153,9.153h38.974A9.125,9.125,0,0,0,579.18,568.027Z" transform="translate(-521.9 -519.9)" fill="#f17150"/><path d="M539.878,531.939v35.04a8.942,8.942,0,0,1-8.939,8.939h0A8.942,8.942,0,0,1,522,566.979v-35.04A8.942,8.942,0,0,1,530.939,523h0A8.942,8.942,0,0,1,539.878,531.939Z" transform="translate(-521.928 -520.783)" fill="#f17150"/><path d="M539.878,583.939h0a8.942,8.942,0,0,1-8.939,8.939h0A8.942,8.942,0,0,1,522,583.939h0A8.942,8.942,0,0,1,530.939,575h0A8.942,8.942,0,0,1,539.878,583.939Z" transform="translate(-521.928 -535.597)" fill="#fec53d"/><path d="M576.883,546.291H556.145A2.107,2.107,0,0,1,554,544.145h0A2.107,2.107,0,0,1,556.145,542h20.738a2.107,2.107,0,0,1,2.145,2.145h0A2.107,2.107,0,0,1,576.883,546.291Z" transform="translate(-531.045 -526.196)" fill="#f17150"/><path d="M576.883,559.291H556.145A2.107,2.107,0,0,1,554,557.145h0A2.107,2.107,0,0,1,556.145,555h20.738a2.107,2.107,0,0,1,2.145,2.145h0A2.107,2.107,0,0,1,576.883,559.291Z" transform="translate(-531.045 -529.9)" fill="#f17150"/><path d="M576.883,572.291H556.145A2.107,2.107,0,0,1,554,570.145h0A2.107,2.107,0,0,1,556.145,568h20.738a2.107,2.107,0,0,1,2.145,2.145h0A2.107,2.107,0,0,1,576.883,572.291Z" transform="translate(-531.045 -533.603)" fill="#f17150"/></svg>